<?xml version="1.0" encoding="utf-8"?>
<!-- Generator: Adobe Illustrator 25.0.1, SVG Export Plug-In . SVG Version: 6.00 Build 0)  -->
<svg version="1.1" id="图层_1" xmlns="http://www.w3.org/2000/svg" xmlns:xlink="http://www.w3.org/1999/xlink" x="0px" y="0px"
	 viewBox="0 0 128 128" style="enable-background:new 0 0 128 128;" xml:space="preserve">
<style type="text/css">
	.st0{clip-path:url(#SVGID_2_);}
	.st1{clip-path:url(#SVGID_4_);}
	.st2{fill:url(#SVGID_5_);}
	.st3{clip-path:url(#SVGID_7_);}
	.st4{fill:url(#SVGID_8_);}
	.st5{clip-path:url(#SVGID_10_);}
	.st6{clip-path:url(#SVGID_12_);}
	.st7{fill:url(#SVGID_13_);}
</style>
<g>
	<g>
		<g>
			<g>
				<g>
					<g>
						<defs>
							<rect id="SVGID_1_" x="36.9" y="16.9" width="61.5" height="47"/>
						</defs>
						<clipPath id="SVGID_2_">
							<use xlink:href="#SVGID_1_"  style="overflow:visible;"/>
						</clipPath>
						<g class="st0">
							<g>
								<g>
									<g>
										<g>
											<defs>
												<path id="SVGID_3_" d="M52.8,17.8l-14.6,8.5c-1.1,0.6-1.4,1.9-0.8,3c0.2,0.3,0.5,0.6,0.8,0.8l58.2,33.7
													c0.8,0.5,1.6,0.2,2-0.5c0.2-0.2,0.2-0.5,0.2-0.8V43c0-1.7-0.9-3.3-2.5-4.2l-36.2-21C57.6,16.5,55,16.5,52.8,17.8"/>
											</defs>
											<clipPath id="SVGID_4_">
												<use xlink:href="#SVGID_3_"  style="overflow:visible;"/>
											</clipPath>
											<g class="st1">
												
													<linearGradient id="SVGID_5_" gradientUnits="userSpaceOnUse" x1="-1000.0201" y1="-118.4064" x2="-999.0641" y2="-118.4064" gradientTransform="matrix(64.34 0 0 -64.34 64379.7773 -7577.8164)">
													<stop  offset="0" style="stop-color:#DD5243"/>
													<stop  offset="1" style="stop-color:#E3795A"/>
												</linearGradient>
												<rect x="36.6" y="16.5" class="st2" width="62" height="47.8"/>
											</g>
										</g>
									</g>
								</g>
							</g>
						</g>
					</g>
				</g>
			</g>
		</g>
	</g>
</g>
<g>
	<g>
		<g>
			<g>
				<defs>
					<path id="SVGID_6_" d="M33.6,34v67.6c0,1.6,0.8,3,2,3.6l16.5,9.7c0.9,0.6,2.2,0.2,2.7-0.6c0.2-0.3,0.3-0.6,0.3-0.9v-69
						c0-1.1-0.6-2.2-1.6-2.8l-16.5-9.6c-0.3-0.2-0.8-0.3-1.1-0.3C34.7,31.6,33.6,32.5,33.6,34"/>
				</defs>
				<clipPath id="SVGID_7_">
					<use xlink:href="#SVGID_6_"  style="overflow:visible;"/>
				</clipPath>
				<g class="st3">
					
						<linearGradient id="SVGID_8_" gradientUnits="userSpaceOnUse" x1="-1017.448" y1="-103.0495" x2="-1016.4921" y2="-103.0495" gradientTransform="matrix(1.569 -249.7051 -249.7051 -1.569 -24091.8965 -254034.5781)">
						<stop  offset="0" style="stop-color:#3D8F6B"/>
						<stop  offset="1" style="stop-color:#36AFB3"/>
					</linearGradient>
					<polygon class="st4" points="33.2,115.7 33.6,31.4 55.7,31.6 55.3,115.8 					"/>
				</g>
			</g>
		</g>
	</g>
</g>
<g>
	<g>
		<g>
			<g>
				<g>
					<defs>
						<rect id="SVGID_9_" x="57" y="41.2" width="41.4" height="46.4"/>
					</defs>
					<clipPath id="SVGID_10_">
						<use xlink:href="#SVGID_9_"  style="overflow:visible;"/>
					</clipPath>
					<g class="st5">
						<g>
							<g>
								<g>
									<g>
										<defs>
											<path id="SVGID_11_" d="M96.2,41.5L58.9,63.1C57.8,63.7,57,65,57,66.3v19.4c0,1.1,0.9,2,2,2c0.3,0,0.8-0.2,1.1-0.3
												l36.2-21.2c1.3-0.8,2-2.2,2-3.6V42.7c0-0.8-0.6-1.4-1.4-1.4C96.7,41.2,96.5,41.3,96.2,41.5"/>
										</defs>
										<clipPath id="SVGID_12_">
											<use xlink:href="#SVGID_11_"  style="overflow:visible;"/>
										</clipPath>
										<g class="st6">
											
												<linearGradient id="SVGID_13_" gradientUnits="userSpaceOnUse" x1="-1058.436" y1="-85.5134" x2="-1057.4801" y2="-85.5134" gradientTransform="matrix(-23.6262 -18.7798 -18.7798 23.6262 -26496.1348 -17761.0469)">
												<stop  offset="0" style="stop-color:#DD7B26"/>
												<stop  offset="1" style="stop-color:#EBA823"/>
											</linearGradient>
											<polygon class="st7" points="33.8,70 72.8,20.9 121.1,59.4 82.1,108.4 											"/>
										</g>
									</g>
								</g>
							</g>
						</g>
					</g>
				</g>
			</g>
		</g>
	</g>
</g>
</svg>
